<svg version="1.1" viewBox="0.0 0.0 600.0 371.0" fill="none" stroke="none" stroke-linecap="square" stroke-miterlimit="10" width="600" height="371" xmlns:xlink="http://www.w3.org/1999/xlink" xmlns="http://www.w3.org/2000/svg"><path fill="#ffffff" d="M0 0L600.0 0L600.0 371.0L0 371.0L0 0Z" fill-rule="nonzero"/><path stroke="#333333" stroke-width="1.0" stroke-linecap="butt" d="M48.5 332.5L581.5 332.5" fill-rule="nonzero"/><path stroke="#cccccc" stroke-width="1.0" stroke-linecap="butt" d="M48.5 262.5L581.5 262.5" fill-rule="nonzero"/><path stroke="#cccccc" stroke-width="1.0" stroke-linecap="butt" d="M48.5 192.5L581.5 192.5" fill-rule="nonzero"/><path stroke="#cccccc" stroke-width="1.0" stroke-linecap="butt" d="M48.5 122.5L581.5 122.5" fill-rule="nonzero"/><path stroke="#cccccc" stroke-width="1.0" stroke-linecap="butt" d="M48.5 51.5L581.5 51.5" fill-rule="nonzero"/><clipPath id="id_0"><path d="M48.55 51.916668L581.45 51.916668L581.45 332.45L48.55 332.45L48.55 51.916668Z" clip-rule="nonzero"/></clipPath><path stroke="#000000" stroke-width="2.0" stroke-linecap="butt" stroke-opacity="0.0" clip-path="url(#id_0)" d="M88.0 332.0L74.0 332.0L74.0 98.0C74.0 96.89543 74.89543 96.0 76.0 96.0L86.0 96.0C87.10457 96.0 88.0 96.89543 88.0 98.0Z" fill-rule="nonzero"/><path fill="#4285f4" clip-path="url(#id_0)" d="M88.0 332.0L74.0 332.0L74.0 98.0C74.0 96.89543 74.89543 96.0 76.0 96.0L86.0 96.0C87.10457 96.0 88.0 96.89543 88.0 98.0Z" fill-rule="nonzero"/><path stroke="#000000" stroke-width="2.0" stroke-linecap="butt" stroke-opacity="0.0" clip-path="url(#id_0)" d="M161.0 332.0L147.0 332.0L147.0 60.0C147.0 58.89543 147.89543 58.0 149.0 58.0L159.0 58.0C160.10457 58.0 161.0 58.89543 161.0 60.0Z" fill-rule="nonzero"/><path fill="#4285f4" clip-path="url(#id_0)" d="M161.0 332.0L147.0 332.0L147.0 60.0C147.0 58.89543 147.89543 58.0 149.0 58.0L159.0 58.0C160.10457 58.0 161.0 58.89543 161.0 60.0Z" fill-rule="nonzero"/><path stroke="#000000" stroke-width="2.0" stroke-linecap="butt" stroke-opacity="0.0" clip-path="url(#id_0)" d="M233.0 332.0L219.0 332.0L219.0 100.0C219.0 98.89543 219.89543 98.0 221.0 98.0L231.0 98.0C232.10457 98.0 233.0 98.89543 233.0 100.0Z" fill-rule="nonzero"/><path fill="#4285f4" clip-path="url(#id_0)" d="M233.0 332.0L219.0 332.0L219.0 100.0C219.0 98.89543 219.89543 98.0 221.0 98.0L231.0 98.0C232.10457 98.0 233.0 98.89543 233.0 100.0Z" fill-rule="nonzero"/><path stroke="#000000" stroke-width="2.0" stroke-linecap="butt" stroke-opacity="0.0" clip-path="url(#id_0)" d="M306.0 332.0L292.0 332.0L292.0 60.0C292.0 58.89543 292.89542 58.0 294.0 58.0L304.0 58.0C305.10458 58.0 306.0 58.89543 306.0 60.0Z" fill-rule="nonzero"/><path fill="#4285f4" clip-path="url(#id_0)" d="M306.0 332.0L292.0 332.0L292.0 60.0C292.0 58.89543 292.89542 58.0 294.0 58.0L304.0 58.0C305.10458 58.0 306.0 58.89543 306.0 60.0Z" fill-rule="nonzero"/><path stroke="#000000" stroke-width="2.0" stroke-linecap="butt" stroke-opacity="0.0" clip-path="url(#id_0)" d="M379.0 332.0L365.0 332.0L365.0 127.0C365.0 125.89543 365.89542 125.0 367.0 125.0L377.0 125.0C378.10458 125.0 379.0 125.89543 379.0 127.0Z" fill-rule="nonzero"/><path fill="#4285f4" clip-path="url(#id_0)" d="M379.0 332.0L365.0 332.0L365.0 127.0C365.0 125.89543 365.89542 125.0 367.0 125.0L377.0 125.0C378.10458 125.0 379.0 125.89543 379.0 127.0Z" fill-rule="nonzero"/><path stroke="#000000" stroke-width="2.0" stroke-linecap="butt" stroke-opacity="0.0" clip-path="url(#id_0)" d="M451.0 332.0L437.0 332.0L437.0 112.0C437.0 110.89543 437.89542 110.0 439.0 110.0L449.0 110.0C450.10458 110.0 451.0 110.89543 451.0 112.0Z" fill-rule="nonzero"/><path fill="#4285f4" clip-path="url(#id_0)" d="M451.0 332.0L437.0 332.0L437.0 112.0C437.0 110.89543 437.89542 110.0 439.0 110.0L449.0 110.0C450.10458 110.0 451.0 110.89543 451.0 112.0Z" fill-rule="nonzero"/><path stroke="#000000" stroke-width="2.0" stroke-linecap="butt" stroke-opacity="0.0" clip-path="url(#id_0)" d="M524.0 332.0L510.0 332.0L510.0 106.0C510.0 104.89543 510.89542 104.0 512.0 104.0L522.0 104.0C523.10455 104.0 524.0 104.89543 524.0 106.0Z" fill-rule="nonzero"/><path fill="#4285f4" clip-path="url(#id_0)" d="M524.0 332.0L510.0 332.0L510.0 106.0C510.0 104.89543 510.89542 104.0 512.0 104.0L522.0 104.0C523.10455 104.0 524.0 104.89543 524.0 106.0Z" fill-rule="nonzero"/><path stroke="#000000" stroke-width="2.0" stroke-linecap="butt" stroke-opacity="0.0" clip-path="url(#id_0)" d="M104.0 332.0L90.0 332.0L90.0 112.0C90.0 110.89543 90.89543 110.0 92.0 110.0L102.0 110.0C103.10457 110.0 104.0 110.89543 104.0 112.0Z" fill-rule="nonzero"/><path fill="#ea4335" clip-path="url(#id_0)" d="M104.0 332.0L90.0 332.0L90.0 112.0C90.0 110.89543 90.89543 110.0 92.0 110.0L102.0 110.0C103.10457 110.0 104.0 110.89543 104.0 112.0Z" fill-rule="nonzero"/><path stroke="#000000" stroke-width="2.0" stroke-linecap="butt" stroke-opacity="0.0" clip-path="url(#id_0)" d="M177.0 332.0L163.0 332.0L163.0 68.0C163.0 66.89543 163.89543 66.0 165.0 66.0L175.0 66.0C176.10457 66.0 177.0 66.89543 177.0 68.0Z" fill-rule="nonzero"/><path fill="#ea4335" clip-path="url(#id_0)" d="M177.0 332.0L163.0 332.0L163.0 68.0C163.0 66.89543 163.89543 66.0 165.0 66.0L175.0 66.0C176.10457 66.0 177.0 66.89543 177.0 68.0Z" fill-rule="nonzero"/><path stroke="#000000" stroke-width="2.0" stroke-linecap="butt" stroke-opacity="0.0" clip-path="url(#id_0)" d="M249.0 332.0L235.0 332.0L235.0 115.0C235.0 113.89543 235.89543 113.0 237.0 113.0L247.0 113.0C248.10457 113.0 249.0 113.89543 249.0 115.0Z" fill-rule="nonzero"/><path fill="#ea4335" clip-path="url(#id_0)" d="M249.0 332.0L235.0 332.0L235.0 115.0C235.0 113.89543 235.89543 113.0 237.0 113.0L247.0 113.0C248.10457 113.0 249.0 113.89543 249.0 115.0Z" fill-rule="nonzero"/><path stroke="#000000" stroke-width="2.0" stroke-linecap="butt" stroke-opacity="0.0" clip-path="url(#id_0)" d="M322.0 332.0L308.0 332.0L308.0 71.0C308.0 69.89543 308.89542 69.0 310.0 69.0L320.0 69.0C321.10458 69.0 322.0 69.89543 322.0 71.0Z" fill-rule="nonzero"/><path fill="#ea4335" clip-path="url(#id_0)" d="M322.0 332.0L308.0 332.0L308.0 71.0C308.0 69.89543 308.89542 69.0 310.0 69.0L320.0 69.0C321.10458 69.0 322.0 69.89543 322.0 71.0Z" fill-rule="nonzero"/><path stroke="#000000" stroke-width="2.0" stroke-linecap="butt" stroke-opacity="0.0" clip-path="url(#id_0)" d="M395.0 332.0L381.0 332.0L381.0 133.0C381.0 131.89543 381.89542 131.0 383.0 131.0L393.0 131.0C394.10458 131.0 395.0 131.89543 395.0 133.0Z" fill-rule="nonzero"/><path fill="#ea4335" clip-path="url(#id_0)" d="M395.0 332.0L381.0 332.0L381.0 133.0C381.0 131.89543 381.89542 131.0 383.0 131.0L393.0 131.0C394.10458 131.0 395.0 131.89543 395.0 133.0Z" fill-rule="nonzero"/><path stroke="#000000" stroke-width="2.0" stroke-linecap="butt" stroke-opacity="0.0" clip-path="url(#id_0)" d="M467.0 332.0L453.0 332.0L453.0 126.0C453.0 124.89543 453.89542 124.0 455.0 124.0L465.0 124.0C466.10458 124.0 467.0 124.89543 467.0 126.0Z" fill-rule="nonzero"/><path fill="#ea4335" clip-path="url(#id_0)" d="M467.0 332.0L453.0 332.0L453.0 126.0C453.0 124.89543 453.89542 124.0 455.0 124.0L465.0 124.0C466.10458 124.0 467.0 124.89543 467.0 126.0Z" fill-rule="nonzero"/><path stroke="#000000" stroke-width="2.0" stroke-linecap="butt" stroke-opacity="0.0" clip-path="url(#id_0)" d="M540.0 332.0L526.0 332.0L526.0 106.0C526.0 104.89543 526.89545 104.0 528.0 104.0L538.0 104.0C539.10455 104.0 540.0 104.89543 540.0 106.0Z" fill-rule="nonzero"/><path fill="#ea4335" clip-path="url(#id_0)" d="M540.0 332.0L526.0 332.0L526.0 106.0C526.0 104.89543 526.89545 104.0 528.0 104.0L538.0 104.0C539.10455 104.0 540.0 104.89543 540.0 106.0Z" fill-rule="nonzero"/><path stroke="#000000" stroke-width="2.0" stroke-linecap="butt" stroke-opacity="0.0" clip-path="url(#id_0)" d="M120.0 332.0L106.0 332.0L106.0 151.0C106.0 149.89543 106.89543 149.0 108.0 149.0L118.0 149.0C119.10457 149.0 120.0 149.89543 120.0 151.0Z" fill-rule="nonzero"/><path fill="#fbbc04" clip-path="url(#id_0)" d="M120.0 332.0L106.0 332.0L106.0 151.0C106.0 149.89543 106.89543 149.0 108.0 149.0L118.0 149.0C119.10457 149.0 120.0 149.89543 120.0 151.0Z" fill-rule="nonzero"/><path stroke="#000000" stroke-width="2.0" stroke-linecap="butt" stroke-opacity="0.0" clip-path="url(#id_0)" d="M193.0 332.0L179.0 332.0L179.0 141.0C179.0 139.89543 179.89543 139.0 181.0 139.0L191.0 139.0C192.10457 139.0 193.0 139.89543 193.0 141.0Z" fill-rule="nonzero"/><path fill="#fbbc04" clip-path="url(#id_0)" d="M193.0 332.0L179.0 332.0L179.0 141.0C179.0 139.89543 179.89543 139.0 181.0 139.0L191.0 139.0C192.10457 139.0 193.0 139.89543 193.0 141.0Z" fill-rule="nonzero"/><path stroke="#000000" stroke-width="2.0" stroke-linecap="butt" stroke-opacity="0.0" clip-path="url(#id_0)" d="M265.0 332.0L251.0 332.0L251.0 158.0C251.0 156.89543 251.89543 156.0 253.0 156.0L263.0 156.0C264.10458 156.0 265.0 156.89543 265.0 158.0Z" fill-rule="nonzero"/><path fill="#fbbc04" clip-path="url(#id_0)" d="M265.0 332.0L251.0 332.0L251.0 158.0C251.0 156.89543 251.89543 156.0 253.0 156.0L263.0 156.0C264.10458 156.0 265.0 156.89543 265.0 158.0Z" fill-rule="nonzero"/><path stroke="#000000" stroke-width="2.0" stroke-linecap="butt" stroke-opacity="0.0" clip-path="url(#id_0)" d="M338.0 332.0L324.0 332.0L324.0 136.0C324.0 134.89543 324.89542 134.0 326.0 134.0L336.0 134.0C337.10458 134.0 338.0 134.89543 338.0 136.0Z" fill-rule="nonzero"/><path fill="#fbbc04" clip-path="url(#id_0)" d="M338.0 332.0L324.0 332.0L324.0 136.0C324.0 134.89543 324.89542 134.0 326.0 134.0L336.0 134.0C337.10458 134.0 338.0 134.89543 338.0 136.0Z" fill-rule="nonzero"/><path stroke="#000000" stroke-width="2.0" stroke-linecap="butt" stroke-opacity="0.0" clip-path="url(#id_0)" d="M411.0 332.0L397.0 332.0L397.0 173.0C397.0 171.89543 397.89542 171.0 399.0 171.0L409.0 171.0C410.10458 171.0 411.0 171.89543 411.0 173.0Z" fill-rule="nonzero"/><path fill="#fbbc04" clip-path="url(#id_0)" d="M411.0 332.0L397.0 332.0L397.0 173.0C397.0 171.89543 397.89542 171.0 399.0 171.0L409.0 171.0C410.10458 171.0 411.0 171.89543 411.0 173.0Z" fill-rule="nonzero"/><path stroke="#000000" stroke-width="2.0" stroke-linecap="butt" stroke-opacity="0.0" clip-path="url(#id_0)" d="M483.0 332.0L469.0 332.0L469.0 167.0C469.0 165.89543 469.89542 165.0 471.0 165.0L481.0 165.0C482.10458 165.0 483.0 165.89543 483.0 167.0Z" fill-rule="nonzero"/><path fill="#fbbc04" clip-path="url(#id_0)" d="M483.0 332.0L469.0 332.0L469.0 167.0C469.0 165.89543 469.89542 165.0 471.0 165.0L481.0 165.0C482.10458 165.0 483.0 165.89543 483.0 167.0Z" fill-rule="nonzero"/><path stroke="#000000" stroke-width="2.0" stroke-linecap="butt" stroke-opacity="0.0" clip-path="url(#id_0)" d="M556.0 332.0L542.0 332.0L542.0 159.0C542.0 157.89543 542.89545 157.0 544.0 157.0L554.0 157.0C555.10455 157.0 556.0 157.89543 556.0 159.0Z" fill-rule="nonzero"/><path fill="#fbbc04" clip-path="url(#id_0)" d="M556.0 332.0L542.0 332.0L542.0 159.0C542.0 157.89543 542.89545 157.0 544.0 157.0L554.0 157.0C555.10455 157.0 556.0 157.89543 556.0 159.0Z" fill-rule="nonzero"/><path fill="#000000" d="M19.05 332.21564Q19.05 330.6844 19.3625 329.7625Q19.675 328.825 20.284374 328.325Q20.909374 327.825 21.846874 327.825Q22.534374 327.825 23.05 328.10626Q23.58125 328.3875 23.925 328.91876Q24.26875 329.4344 24.45625 330.1844Q24.64375 330.9344 24.64375 332.21564Q24.64375 333.73126 24.33125 334.65314Q24.034374 335.575 23.409374 336.09064Q22.8 336.59064 21.846874 336.59064Q20.6125 336.59064 19.89375 335.7Q19.05 334.6375 19.05 332.21564ZM20.128124 332.21564Q20.128124 334.325 20.628124 335.02814Q21.128124 335.73126 21.846874 335.73126Q22.58125 335.73126 23.065624 335.02814Q23.565624 334.325 23.565624 332.21564Q23.565624 330.09064 23.065624 329.40314Q22.58125 328.7 21.83125 328.7Q21.1125 328.7 20.675 329.3094Q20.128124 330.09064 20.128124 332.21564ZM26.64375 336.45L26.64375 335.2469L27.846874 335.2469L27.846874 336.45L26.64375 336.45ZM29.05 332.21564Q29.05 330.6844 29.3625 329.7625Q29.675 328.825 30.284374 328.325Q30.909374 327.825 31.846874 327.825Q32.534374 327.825 33.05 328.10626Q33.58125 328.3875 33.925 328.91876Q34.26875 329.4344 34.45625 330.1844Q34.64375 330.9344 34.64375 332.21564Q34.64375 333.73126 34.33125 334.65314Q34.034374 335.575 33.409374 336.09064Q32.8 336.59064 31.846874 336.59064Q30.6125 336.59064 29.89375 335.7Q29.05 334.6375 29.05 332.21564ZM30.128124 332.21564Q30.128124 334.325 30.628124 335.02814Q31.128124 335.73126 31.846874 335.73126Q32.58125 335.73126 33.065624 335.02814Q33.565624 334.325 33.565624 332.21564Q33.565624 330.09064 33.065624 329.40314Q32.58125 328.7 31.83125 328.7Q31.1125 328.7 30.675 329.3094Q30.128124 330.09064 30.128124 332.21564ZM36.05 332.21564Q36.05 330.6844 36.3625 329.7625Q36.675 328.825 37.284374 328.325Q37.909374 327.825 38.846874 327.825Q39.534374 327.825 40.05 328.10626Q40.58125 328.3875 40.925 328.91876Q41.26875 329.4344 41.45625 330.1844Q41.64375 330.9344 41.64375 332.21564Q41.64375 333.73126 41.33125 334.65314Q41.034374 335.575 40.409374 336.09064Q39.8 336.59064 38.846874 336.59064Q37.6125 336.59064 36.89375 335.7Q36.05 334.6375 36.05 332.21564ZM37.128124 332.21564Q37.128124 334.325 37.628124 335.02814Q38.128124 335.73126 38.846874 335.73126Q39.58125 335.73126 40.065624 335.02814Q40.565624 334.325 40.565624 332.21564Q40.565624 330.09064 40.065624 329.40314Q39.58125 328.7 38.83125 328.7Q38.1125 328.7 37.675 329.3094Q37.128124 330.09064 37.128124 332.21564Z" fill-rule="nonzero"/><path fill="#000000" d="M19.05 262.0823Q19.05 260.55106 19.3625 259.62918Q19.675 258.69168 20.284374 258.19168Q20.909374 257.69168 21.846874 257.69168Q22.534374 257.69168 23.05 257.97293Q23.58125 258.25418 23.925 258.78543Q24.26875 259.30106 24.45625 260.05106Q24.64375 260.80106 24.64375 262.0823Q24.64375 263.59793 24.33125 264.5198Q24.034374 265.44168 23.409374 265.9573Q22.8 266.4573 21.846874 266.4573Q20.6125 266.4573 19.89375 265.56668Q19.05 264.50418 19.05 262.0823ZM20.128124 262.0823Q20.128124 264.19168 20.628124 264.8948Q21.128124 265.59793 21.846874 265.59793Q22.58125 265.59793 23.065624 264.8948Q23.565624 264.19168 23.565624 262.0823Q23.565624 259.9573 23.065624 259.2698Q22.58125 258.56668 21.83125 258.56668Q21.1125 258.56668 20.675 259.17606Q20.128124 259.9573 20.128124 262.0823ZM26.64375 266.31668L26.64375 265.11356L27.846874 265.11356L27.846874 266.31668L26.64375 266.31668ZM34.596874 265.30106L34.596874 266.31668L28.909374 266.31668Q28.909374 265.94168 29.034374 265.5823Q29.253124 265.00418 29.721874 264.44168Q30.20625 263.87918 31.1125 263.1448Q32.51875 261.98856 33.003124 261.31668Q33.503124 260.6448 33.503124 260.05106Q33.503124 259.42606 33.05 259.00418Q32.596874 258.56668 31.878124 258.56668Q31.1125 258.56668 30.659374 259.0198Q30.20625 259.47293 30.190624 260.28543L29.1125 260.17606Q29.221874 258.9573 29.940624 258.3323Q30.675 257.69168 31.909374 257.69168Q33.14375 257.69168 33.8625 258.37918Q34.58125 259.06668 34.58125 260.0823Q34.58125 260.59793 34.3625 261.09793Q34.159374 261.5823 33.659374 262.1448Q33.175 262.69168 32.05 263.6448Q31.096874 264.44168 30.815624 264.73856Q30.55 265.0198 30.378124 265.30106L34.596874 265.30106ZM36.05 264.06668L37.159374 263.97293Q37.284374 264.78543 37.721874 265.19168Q38.175 265.59793 38.815624 265.59793Q39.565624 265.59793 40.096874 265.0198Q40.628124 264.44168 40.628124 263.50418Q40.628124 262.59793 40.1125 262.0823Q39.6125 261.55106 38.784374 261.55106Q38.284374 261.55106 37.8625 261.78543Q37.45625 262.0198 37.221874 262.37918L36.2375 262.25418L37.065624 257.84793L41.346874 257.84793L41.346874 258.84793L37.909374 258.84793L37.45625 261.16043Q38.221874 260.61356 39.065624 260.61356Q40.190624 260.61356 40.95625 261.3948Q41.7375 262.17606 41.7375 263.41043Q41.7375 264.56668 41.065624 265.42606Q40.2375 266.4573 38.815624 266.4573Q37.64375 266.4573 36.89375 265.80106Q36.159374 265.1448 36.05 264.06668Z" fill-rule="nonzero"/><path fill="#000000" d="M19.05 191.94896Q19.05 190.41771 19.3625 189.49583Q19.675 188.55833 20.284374 188.05833Q20.909374 187.55833 21.846874 187.55833Q22.534374 187.55833 23.05 187.83958Q23.58125 188.12083 23.925 188.65208Q24.26875 189.16771 24.45625 189.91771Q24.64375 190.66771 24.64375 191.94896Q24.64375 193.46458 24.33125 194.38646Q24.034374 195.30833 23.409374 195.82396Q22.8 196.32396 21.846874 196.32396Q20.6125 196.32396 19.89375 195.43333Q19.05 194.37083 19.05 191.94896ZM20.128124 191.94896Q20.128124 194.05833 20.628124 194.76146Q21.128124 195.46458 21.846874 195.46458Q22.58125 195.46458 23.065624 194.76146Q23.565624 194.05833 23.565624 191.94896Q23.565624 189.82396 23.065624 189.13646Q22.58125 188.43333 21.83125 188.43333Q21.1125 188.43333 20.675 189.04271Q20.128124 189.82396 20.128124 191.94896ZM26.64375 196.18333L26.64375 194.98021L27.846874 194.98021L27.846874 196.18333L26.64375 196.18333ZM29.05 193.93333L30.159374 193.83958Q30.284374 194.65208 30.721874 195.05833Q31.175 195.46458 31.815624 195.46458Q32.565624 195.46458 33.096874 194.88646Q33.628124 194.30833 33.628124 193.37083Q33.628124 192.46458 33.1125 191.94896Q32.6125 191.41771 31.784374 191.41771Q31.284374 191.41771 30.8625 191.65208Q30.45625 191.88646 30.221874 192.24583L29.2375 192.12083L30.065624 187.71458L34.346874 187.71458L34.346874 188.71458L30.909374 188.71458L30.45625 191.02708Q31.221874 190.48021 32.065624 190.48021Q33.190624 190.48021 33.95625 191.26146Q34.7375 192.04271 34.7375 193.27708Q34.7375 194.43333 34.065624 195.29271Q33.2375 196.32396 31.815624 196.32396Q30.64375 196.32396 29.89375 195.66771Q29.159374 195.01146 29.05 193.93333ZM36.05 191.94896Q36.05 190.41771 36.3625 189.49583Q36.675 188.55833 37.284374 188.05833Q37.909374 187.55833 38.846874 187.55833Q39.534374 187.55833 40.05 187.83958Q40.58125 188.12083 40.925 188.65208Q41.26875 189.16771 41.45625 189.91771Q41.64375 190.66771 41.64375 191.94896Q41.64375 193.46458 41.33125 194.38646Q41.034374 195.30833 40.409374 195.82396Q39.8 196.32396 38.846874 196.32396Q37.6125 196.32396 36.89375 195.43333Q36.05 194.37083 36.05 191.94896ZM37.128124 191.94896Q37.128124 194.05833 37.628124 194.76146Q38.128124 195.46458 38.846874 195.46458Q39.58125 195.46458 40.065624 194.76146Q40.565624 194.05833 40.565624 191.94896Q40.565624 189.82396 40.065624 189.13646Q39.58125 188.43333 38.83125 188.43333Q38.1125 188.43333 37.675 189.04271Q37.128124 189.82396 37.128124 191.94896Z" fill-rule="nonzero"/><path fill="#000000" d="M19.05 121.81563Q19.05 120.28438 19.3625 119.3625Q19.675 118.425 20.284374 117.925Q20.909374 117.425 21.846874 117.425Q22.534374 117.425 23.05 117.70625Q23.58125 117.9875 23.925 118.51875Q24.26875 119.03438 24.45625 119.78438Q24.64375 120.53438 24.64375 121.81563Q24.64375 123.33125 24.33125 124.25313Q24.034374 125.175 23.409374 125.69063Q22.8 126.19063 21.846874 126.19063Q20.6125 126.19063 19.89375 125.3Q19.05 124.2375 19.05 121.81563ZM20.128124 121.81563Q20.128124 123.925 20.628124 124.62813Q21.128124 125.33125 21.846874 125.33125Q22.58125 125.33125 23.065624 124.62813Q23.565624 123.925 23.565624 121.81563Q23.565624 119.69063 23.065624 119.00313Q22.58125 118.3 21.83125 118.3Q21.1125 118.3 20.675 118.90938Q20.128124 119.69063 20.128124 121.81563ZM26.64375 126.05L26.64375 124.84688L27.846874 124.84688L27.846874 126.05L26.64375 126.05ZM29.1125 118.58125L29.1125 117.56563L34.675 117.56563L34.675 118.39375Q33.8625 119.26875 33.05 120.72188Q32.253124 122.15938 31.815624 123.69063Q31.4875 124.76875 31.409374 126.05L30.315624 126.05Q30.33125 125.03438 30.70625 123.59688Q31.096874 122.15938 31.8 120.83125Q32.51875 119.50313 33.33125 118.58125L29.1125 118.58125ZM36.05 123.8L37.159374 123.70625Q37.284374 124.51875 37.721874 124.925Q38.175 125.33125 38.815624 125.33125Q39.565624 125.33125 40.096874 124.75313Q40.628124 124.175 40.628124 123.2375Q40.628124 122.33125 40.1125 121.81563Q39.6125 121.28438 38.784374 121.28438Q38.284374 121.28438 37.8625 121.51875Q37.45625 121.75313 37.221874 122.1125L36.2375 121.9875L37.065624 117.58125L41.346874 117.58125L41.346874 118.58125L37.909374 118.58125L37.45625 120.89375Q38.221874 120.34688 39.065624 120.34688Q40.190624 120.34688 40.95625 121.12813Q41.7375 121.90938 41.7375 123.14375Q41.7375 124.3 41.065624 125.15938Q40.2375 126.19063 38.815624 126.19063Q37.64375 126.19063 36.89375 125.53438Q36.159374 124.87813 36.05 123.8Z" fill-rule="nonzero"/><path fill="#000000" d="M23.01875 55.916668L21.971874 55.916668L21.971874 49.197918Q21.58125 49.557293 20.95625 49.932293Q20.346874 50.291668 19.8625 50.463543L19.8625 49.447918Q20.7375 49.026043 21.39375 48.447918Q22.065624 47.854168 22.346874 47.291668L23.01875 47.291668L23.01875 55.916668ZM26.64375 55.916668L26.64375 54.713543L27.846874 54.713543L27.846874 55.916668L26.64375 55.916668ZM29.05 51.682293Q29.05 50.151043 29.3625 49.229168Q29.675 48.291668 30.284374 47.791668Q30.909374 47.291668 31.846874 47.291668Q32.534374 47.291668 33.05 47.572918Q33.58125 47.854168 33.925 48.385418Q34.26875 48.901043 34.45625 49.651043Q34.64375 50.401043 34.64375 51.682293Q34.64375 53.197918 34.33125 54.119793Q34.034374 55.041668 33.409374 55.557293Q32.8 56.057293 31.846874 56.057293Q30.6125 56.057293 29.89375 55.166668Q29.05 54.104168 29.05 51.682293ZM30.128124 51.682293Q30.128124 53.791668 30.628124 54.494793Q31.128124 55.197918 31.846874 55.197918Q32.58125 55.197918 33.065624 54.494793Q33.565624 53.791668 33.565624 51.682293Q33.565624 49.557293 33.065624 48.869793Q32.58125 48.166668 31.83125 48.166668Q31.1125 48.166668 30.675 48.776043Q30.128124 49.557293 30.128124 51.682293ZM36.05 51.682293Q36.05 50.151043 36.3625 49.229168Q36.675 48.291668 37.284374 47.791668Q37.909374 47.291668 38.846874 47.291668Q39.534374 47.291668 40.05 47.572918Q40.58125 47.854168 40.925 48.385418Q41.26875 48.901043 41.45625 49.651043Q41.64375 50.401043 41.64375 51.682293Q41.64375 53.197918 41.33125 54.119793Q41.034374 55.041668 40.409374 55.557293Q39.8 56.057293 38.846874 56.057293Q37.6125 56.057293 36.89375 55.166668Q36.05 54.104168 36.05 51.682293ZM37.128124 51.682293Q37.128124 53.791668 37.628124 54.494793Q38.128124 55.197918 38.846874 55.197918Q39.58125 55.197918 40.065624 54.494793Q40.565624 53.791668 40.565624 51.682293Q40.565624 49.557293 40.065624 48.869793Q39.58125 48.166668 38.83125 48.166668Q38.1125 48.166668 37.675 48.776043Q37.128124 49.557293 37.128124 51.682293Z" fill-rule="nonzero"/><path fill="#000000" d="M75.849174 347.16876L76.880424 347.3094Q76.70855 348.3719 76.005424 348.98126Q75.3023 349.59064 74.286674 349.59064Q73.005424 349.59064 72.224174 348.7625Q71.45855 347.91876 71.45855 346.35626Q71.45855 345.35626 71.786674 344.60626Q72.130424 343.84064 72.8023 343.46564Q73.4898 343.09064 74.3023 343.09064Q75.3023 343.09064 75.942924 343.60626Q76.599174 344.10626 76.786674 345.0594L75.755424 345.21564Q75.6148 344.59064 75.2398 344.27814Q74.8648 343.95 74.33355 343.95Q73.536674 343.95 73.036674 344.52814Q72.536674 345.09064 72.536674 346.325Q72.536674 347.59064 73.02105 348.15314Q73.505424 348.71564 74.27105 348.71564Q74.89605 348.71564 75.3023 348.34064Q75.724174 347.96564 75.849174 347.16876ZM81.849174 348.6844Q81.255424 349.1844 80.70855 349.3875Q80.1773 349.59064 79.5523 349.59064Q78.52105 349.59064 77.974174 349.09064Q77.4273 348.59064 77.4273 347.8094Q77.4273 347.35626 77.630424 346.98126Q77.83355 346.59064 78.1773 346.3719Q78.52105 346.1375 78.942924 346.02814Q79.2398 345.9344 79.880424 345.85626Q81.14605 345.71564 81.755424 345.4969Q81.755424 345.27814 81.755424 345.23126Q81.755424 344.575 81.45855 344.3094Q81.0523 343.96564 80.255424 343.96564Q79.52105 343.96564 79.161674 344.23126Q78.8023 344.48126 78.630424 345.1375L77.599174 344.9969Q77.7398 344.34064 78.067924 343.9344Q78.39605 343.52814 79.005424 343.3094Q79.6148 343.09064 80.411674 343.09064Q81.20855 343.09064 81.70855 343.27814Q82.20855 343.46564 82.442924 343.7469Q82.6773 344.02814 82.77105 344.46564Q82.817924 344.73126 82.817924 345.4344L82.817924 346.84064Q82.817924 348.3094 82.880424 348.7Q82.95855 349.09064 83.161674 349.45L82.0523 349.45Q81.89605 349.1219 81.849174 348.6844ZM81.755424 346.325Q81.1773 346.5594 80.036674 346.73126Q79.380424 346.825 79.1148 346.95Q78.849174 347.0594 78.692924 347.27814Q78.5523 347.4969 78.5523 347.77814Q78.5523 348.2 78.8648 348.48126Q79.192924 348.7625 79.8023 348.7625Q80.411674 348.7625 80.880424 348.4969Q81.3648 348.23126 81.58355 347.7625Q81.755424 347.40314 81.755424 346.71564L81.755424 346.325ZM84.755424 349.45L84.755424 340.85626L85.817924 340.85626L85.817924 349.45L84.755424 349.45ZM91.849174 347.16876L92.880424 347.3094Q92.70855 348.3719 92.005424 348.98126Q91.3023 349.59064 90.286674 349.59064Q89.005424 349.59064 88.224174 348.7625Q87.45855 347.91876 87.45855 346.35626Q87.45855 345.35626 87.786674 344.60626Q88.130424 343.84064 88.8023 343.46564Q89.4898 343.09064 90.3023 343.09064Q91.3023 343.09064 91.942924 343.60626Q92.599174 344.10626 92.786674 345.0594L91.755424 345.21564Q91.6148 344.59064 91.2398 344.27814Q90.8648 343.95 90.33355 343.95Q89.536674 343.95 89.036674 344.52814Q88.536674 345.09064 88.536674 346.325Q88.536674 347.59064 89.02105 348.15314Q89.505424 348.71564 90.27105 348.71564Q90.89605 348.71564 91.3023 348.34064Q91.724174 347.96564 91.849174 347.16876ZM97.8648 349.45L97.8648 348.52814Q97.130424 349.59064 95.880424 349.59064Q95.33355 349.59064 94.849174 349.3875Q94.380424 349.16876 94.14605 348.85626Q93.911674 348.52814 93.817924 348.0594Q93.755424 347.7625 93.755424 347.075L93.755424 343.23126L94.817924 343.23126L94.817924 346.6844Q94.817924 347.4969 94.880424 347.79376Q94.974174 348.2 95.286674 348.45Q95.6148 348.6844 96.099174 348.6844Q96.567924 348.6844 96.974174 348.45Q97.39605 348.2 97.567924 347.77814Q97.755424 347.35626 97.755424 346.5594L97.755424 343.23126L98.8023 343.23126L98.8023 349.45L97.8648 349.45ZM100.755424 349.45L100.755424 340.85626L101.817924 340.85626L101.817924 349.45L100.755424 349.45ZM107.849174 348.6844Q107.255424 349.1844 106.70855 349.3875Q106.1773 349.59064 105.5523 349.59064Q104.52105 349.59064 103.974174 349.09064Q103.4273 348.59064 103.4273 347.8094Q103.4273 347.35626 103.630424 346.98126Q103.83355 346.59064 104.1773 346.3719Q104.52105 346.1375 104.942924 346.02814Q105.2398 345.9344 105.880424 345.85626Q107.14605 345.71564 107.755424 345.4969Q107.755424 345.27814 107.755424 345.23126Q107.755424 344.575 107.45855 344.3094Q107.0523 343.96564 106.255424 343.96564Q105.52105 343.96564 105.161674 344.23126Q104.8023 344.48126 104.630424 345.1375L103.599174 344.9969Q103.7398 344.34064 104.067924 343.9344Q104.39605 343.52814 105.005424 343.3094Q105.6148 343.09064 106.411674 343.09064Q107.20855 343.09064 107.70855 343.27814Q108.20855 343.46564 108.442924 343.7469Q108.6773 344.02814 108.77105 344.46564Q108.817924 344.73126 108.817924 345.4344L108.817924 346.84064Q108.817924 348.3094 108.880424 348.7Q108.95855 349.09064 109.161674 349.45L108.0523 349.45Q107.89605 349.1219 107.849174 348.6844ZM107.755424 346.325Q107.1773 346.5594 106.036674 346.73126Q105.380424 346.825 105.1148 346.95Q104.849174 347.0594 104.692924 347.27814Q104.5523 347.4969 104.5523 347.77814Q104.5523 348.2 104.8648 348.48126Q105.192924 348.7625 105.8023 348.7625Q106.411674 348.7625 106.880424 348.4969Q107.3648 348.23126 107.58355 347.7625Q107.755424 347.40314 107.755424 346.71564L107.755424 346.325ZM113.08355 348.5125L113.2398 349.4344Q112.786674 349.52814 112.442924 349.52814Q111.8648 349.52814 111.5523 349.35626Q111.2398 349.16876 111.099174 348.8719Q110.974174 348.575 110.974174 347.6219L110.974174 344.04376L110.20855 344.04376L110.20855 343.23126L110.974174 343.23126L110.974174 341.6844L112.02105 341.0594L112.02105 343.23126L113.08355 343.23126L113.08355 344.04376L112.02105 344.04376L112.02105 347.6844Q112.02105 348.1375 112.067924 348.2625Q112.130424 348.3875 112.255424 348.46564Q112.380424 348.54376 112.6148 348.54376Q112.8023 348.54376 113.08355 348.5125ZM113.39605 346.34064Q113.39605 344.60626 114.349174 343.77814Q115.14605 343.09064 116.3023 343.09064Q117.58355 343.09064 118.39605 343.9344Q119.224174 344.7625 119.224174 346.2469Q119.224174 347.45 118.8648 348.1375Q118.505424 348.825 117.8023 349.21564Q117.1148 349.59064 116.3023 349.59064Q115.005424 349.59064 114.192924 348.7625Q113.39605 347.91876 113.39605 346.34064ZM114.474174 346.34064Q114.474174 347.52814 114.9898 348.1219Q115.52105 348.71564 116.3023 348.71564Q117.099174 348.71564 117.6148 348.1219Q118.130424 347.52814 118.130424 346.3094Q118.130424 345.15314 117.599174 344.5594Q117.08355 343.96564 116.3023 343.96564Q115.52105 343.96564 114.9898 344.5594Q114.474174 345.1375 114.474174 346.34064ZM120.77105 349.45L120.77105 343.23126L121.724174 343.23126L121.724174 344.16876Q122.08355 343.5125 122.380424 343.3094Q122.692924 343.09064 123.067924 343.09064Q123.599174 343.09064 124.14605 343.41876L123.786674 344.40314Q123.39605 344.16876 123.02105 344.16876Q122.661674 344.16876 122.380424 344.3875Q122.1148 344.59064 122.005424 344.96564Q121.817924 345.52814 121.817924 346.1844L121.817924 349.45L120.77105 349.45Z" fill-rule="nonzero"/><path fill="#000000" d="M159.32132 349.45L159.32132 348.66876Q158.72757 349.59064 157.58694 349.59064Q156.83694 349.59064 156.21194 349.1844Q155.58694 348.7625 155.2432 348.02814Q154.89944 347.29376 154.89944 346.34064Q154.89944 345.41876 155.21194 344.65314Q155.52444 343.8875 156.14944 343.4969Q156.77444 343.09064 157.54007 343.09064Q158.10257 343.09064 158.54007 343.325Q158.97757 343.5594 159.25882 343.9344L159.25882 340.85626L160.3057 340.85626L160.3057 349.45L159.32132 349.45ZM155.9932 346.34064Q155.9932 347.54376 156.4932 348.1375Q156.9932 348.71564 157.6807 348.71564Q158.3682 348.71564 158.85257 348.15314Q159.33694 347.59064 159.33694 346.4344Q159.33694 345.15314 158.83694 344.5594Q158.35257 343.96564 157.63382 343.96564Q156.9307 343.96564 156.46194 344.54376Q155.9932 345.10626 155.9932 346.34064ZM161.89944 346.34064Q161.89944 344.60626 162.85257 343.77814Q163.64944 343.09064 164.8057 343.09064Q166.08694 343.09064 166.89944 343.9344Q167.72757 344.7625 167.72757 346.2469Q167.72757 347.45 167.3682 348.1375Q167.00882 348.825 166.3057 349.21564Q165.6182 349.59064 164.8057 349.59064Q163.50882 349.59064 162.69632 348.7625Q161.89944 347.91876 161.89944 346.34064ZM162.97757 346.34064Q162.97757 347.52814 163.4932 348.1219Q164.02444 348.71564 164.8057 348.71564Q165.60257 348.71564 166.1182 348.1219Q166.63382 347.52814 166.63382 346.3094Q166.63382 345.15314 166.10257 344.5594Q165.58694 343.96564 164.8057 343.96564Q164.02444 343.96564 163.4932 344.5594Q162.97757 345.1375 162.97757 346.34064ZM169.29007 349.45L169.29007 343.23126L170.22757 343.23126L170.22757 344.10626Q170.91507 343.09064 172.21194 343.09064Q172.77444 343.09064 173.2432 343.29376Q173.72757 343.4969 173.96194 343.825Q174.19632 344.15314 174.29007 344.59064Q174.33694 344.8875 174.33694 345.6219L174.33694 349.45L173.29007 349.45L173.29007 345.66876Q173.29007 345.0125 173.16507 344.7Q173.04007 344.3875 172.72757 344.2Q172.41507 343.9969 171.9932 343.9969Q171.32132 343.9969 170.82132 344.4344Q170.33694 344.85626 170.33694 346.04376L170.33694 349.45L169.29007 349.45ZM180.3682 349.45L180.3682 348.52814Q179.63382 349.59064 178.38382 349.59064Q177.83694 349.59064 177.35257 349.3875Q176.88382 349.16876 176.64944 348.85626Q176.41507 348.52814 176.32132 348.0594Q176.25882 347.7625 176.25882 347.075L176.25882 343.23126L177.32132 343.23126L177.32132 346.6844Q177.32132 347.4969 177.38382 347.79376Q177.47757 348.2 177.79007 348.45Q178.1182 348.6844 178.60257 348.6844Q179.07132 348.6844 179.47757 348.45Q179.89944 348.2 180.07132 347.77814Q180.25882 347.35626 180.25882 346.5594L180.25882 343.23126L181.3057 343.23126L181.3057 349.45L180.3682 349.45ZM185.58694 348.5125L185.7432 349.4344Q185.29007 349.52814 184.94632 349.52814Q184.3682 349.52814 184.0557 349.35626Q183.7432 349.16876 183.60257 348.8719Q183.47757 348.575 183.47757 347.6219L183.47757 344.04376L182.71194 344.04376L182.71194 343.23126L183.47757 343.23126L183.47757 341.6844L184.52444 341.0594L184.52444 343.23126L185.58694 343.23126L185.58694 344.04376L184.52444 344.04376L184.52444 347.6844Q184.52444 348.1375 184.57132 348.2625Q184.63382 348.3875 184.75882 348.46564Q184.88382 348.54376 185.1182 348.54376Q185.3057 348.54376 185.58694 348.5125Z" fill-rule="nonzero"/><path fill="#000000" d="M219.04347 349.45L219.04347 344.04376L218.10597 344.04376L218.10597 343.23126L219.04347 343.23126L219.04347 342.5594Q219.04347 341.9344 219.15285 341.6375Q219.3091 341.21564 219.6841 340.96564Q220.07472 340.71564 220.76222 340.71564Q221.21535 340.71564 221.7466 340.825L221.59035 341.73126Q221.26222 341.6844 220.96535 341.6844Q220.48097 341.6844 220.27785 341.8875Q220.09035 342.09064 220.09035 342.65314L220.09035 343.23126L221.3091 343.23126L221.3091 344.04376L220.09035 344.04376L220.09035 349.45L219.04347 349.45ZM221.79347 342.075L221.79347 340.85626L222.85597 340.85626L222.85597 342.075L221.79347 342.075ZM221.79347 349.45L221.79347 343.23126L222.85597 343.23126L222.85597 349.45L221.79347 349.45ZM225.76222 349.45L224.77785 349.45L224.77785 340.85626L225.84035 340.85626L225.84035 343.91876Q226.51222 343.09064 227.54347 343.09064Q228.1216 343.09064 228.6216 343.325Q229.13722 343.54376 229.46535 343.96564Q229.8091 344.3875 229.9966 344.98126Q230.1841 345.575 230.1841 346.2469Q230.1841 347.84064 229.38722 348.71564Q228.59035 349.59064 227.4966 349.59064Q226.38722 349.59064 225.76222 348.66876L225.76222 349.45ZM225.7466 346.29376Q225.7466 347.40314 226.0591 347.90314Q226.5591 348.71564 227.40285 348.71564Q228.09035 348.71564 228.59035 348.1219Q229.10597 347.52814 229.10597 346.325Q229.10597 345.10626 228.6216 344.52814Q228.13722 343.95 227.44972 343.95Q226.76222 343.95 226.2466 344.5594Q225.7466 345.15314 225.7466 346.29376ZM231.40285 346.34064Q231.40285 344.60626 232.35597 343.77814Q233.15285 343.09064 234.3091 343.09064Q235.59035 343.09064 236.40285 343.9344Q237.23097 344.7625 237.23097 346.2469Q237.23097 347.45 236.8716 348.1375Q236.51222 348.825 235.8091 349.21564Q235.1216 349.59064 234.3091 349.59064Q233.01222 349.59064 232.19972 348.7625Q231.40285 347.91876 231.40285 346.34064ZM232.48097 346.34064Q232.48097 347.52814 232.9966 348.1219Q233.52785 348.71564 234.3091 348.71564Q235.10597 348.71564 235.6216 348.1219Q236.13722 347.52814 236.13722 346.3094Q236.13722 345.15314 235.60597 344.5594Q235.09035 343.96564 234.3091 343.96564Q233.52785 343.96564 232.9966 344.5594Q232.48097 345.1375 232.48097 346.34064ZM238.79347 349.45L238.79347 343.23126L239.73097 343.23126L239.73097 344.10626Q240.41847 343.09064 241.71535 343.09064Q242.27785 343.09064 242.7466 343.29376Q243.23097 343.4969 243.46535 343.825Q243.69972 344.15314 243.79347 344.59064Q243.84035 344.8875 243.84035 345.6219L243.84035 349.45L242.79347 349.45L242.79347 345.66876Q242.79347 345.0125 242.66847 344.7Q242.54347 344.3875 242.23097 344.2Q241.91847 343.9969 241.4966 343.9969Q240.82472 343.9969 240.32472 344.4344Q239.84035 344.85626 239.84035 346.04376L239.84035 349.45L238.79347 349.45ZM249.85597 348.6844Q249.26222 349.1844 248.71535 349.3875Q248.1841 349.59064 247.5591 349.59064Q246.52785 349.59064 245.98097 349.09064Q245.4341 348.59064 245.4341 347.8094Q245.4341 347.35626 245.63722 346.98126Q245.84035 346.59064 246.1841 346.3719Q246.52785 346.1375 246.94972 346.02814Q247.2466 345.9344 247.88722 345.85626Q249.15285 345.71564 249.76222 345.4969Q249.76222 345.27814 249.76222 345.23126Q249.76222 344.575 249.46535 344.3094Q249.0591 343.96564 248.26222 343.96564Q247.52785 343.96564 247.16847 344.23126Q246.8091 344.48126 246.63722 345.1375L245.60597 344.9969Q245.7466 344.34064 246.07472 343.9344Q246.40285 343.52814 247.01222 343.3094Q247.6216 343.09064 248.41847 343.09064Q249.21535 343.09064 249.71535 343.27814Q250.21535 343.46564 250.44972 343.7469Q250.6841 344.02814 250.77785 344.46564Q250.82472 344.73126 250.82472 345.4344L250.82472 346.84064Q250.82472 348.3094 250.88722 348.7Q250.96535 349.09064 251.16847 349.45L250.0591 349.45Q249.90285 349.1219 249.85597 348.6844ZM249.76222 346.325Q249.1841 346.5594 248.04347 346.73126Q247.38722 346.825 247.1216 346.95Q246.85597 347.0594 246.69972 347.27814Q246.5591 347.4969 246.5591 347.77814Q246.5591 348.2 246.8716 348.48126Q247.19972 348.7625 247.8091 348.7625Q248.41847 348.7625 248.88722 348.4969Q249.3716 348.23126 249.59035 347.7625Q249.76222 347.40314 249.76222 346.71564L249.76222 346.325ZM256.85596 347.16876L257.8872 347.3094Q257.71533 348.3719 257.0122 348.98126Q256.30908 349.59064 255.29347 349.59064Q254.01222 349.59064 253.23097 348.7625Q252.46535 347.91876 252.46535 346.35626Q252.46535 345.35626 252.79347 344.60626Q253.13722 343.84064 253.8091 343.46564Q254.4966 343.09064 255.3091 343.09064Q256.30908 343.09064 256.9497 343.60626Q257.60596 344.10626 257.79346 345.0594L256.7622 345.21564Q256.62158 344.59064 256.24658 344.27814Q255.8716 343.95 255.34035 343.95Q254.54347 343.95 254.04347 344.52814Q253.54347 345.09064 253.54347 346.325Q253.54347 347.59064 254.02785 348.15314Q254.51222 348.71564 255.27785 348.71564Q255.90285 348.71564 256.30908 348.34064Q256.73096 347.96564 256.85596 347.16876ZM262.85596 347.16876L263.8872 347.3094Q263.71533 348.3719 263.0122 348.98126Q262.30908 349.59064 261.29346 349.59064Q260.0122 349.59064 259.23096 348.7625Q258.46533 347.91876 258.46533 346.35626Q258.46533 345.35626 258.79346 344.60626Q259.1372 343.84064 259.80908 343.46564Q260.49658 343.09064 261.30908 343.09064Q262.30908 343.09064 262.9497 343.60626Q263.60596 344.10626 263.79346 345.0594L262.7622 345.21564Q262.62158 344.59064 262.24658 344.27814Q261.87158 343.95 261.34033 343.95Q260.54346 343.95 260.04346 344.52814Q259.54346 345.09064 259.54346 346.325Q259.54346 347.59064 260.02783 348.15314Q260.5122 348.71564 261.27783 348.71564Q261.90283 348.71564 262.30908 348.34064Q262.73096 347.96564 262.85596 347.16876ZM264.79346 342.075L264.79346 340.85626L265.85596 340.85626L265.85596 342.075L264.79346 342.075ZM264.79346 349.45L264.79346 343.23126L265.85596 343.23126L265.85596 349.45L264.79346 349.45Z" fill-rule="nonzero"/><path fill="#000000" d="M310.79688 351.84064L310.79688 343.23126L311.75 343.23126L311.75 344.02814Q312.09375 343.5594 312.51562 343.325Q312.95312 343.09064 313.5625 343.09064Q314.35938 343.09064 314.96875 343.4969Q315.57812 343.90314 315.875 344.65314Q316.1875 345.40314 316.1875 346.29376Q316.1875 347.2469 315.84375 348.0125Q315.51562 348.77814 314.85938 349.1844Q314.20312 349.59064 313.48438 349.59064Q312.95312 349.59064 312.53125 349.3719Q312.10938 349.1375 311.84375 348.8094L311.84375 351.84064L310.79688 351.84064ZM311.75 346.3719Q311.75 347.575 312.23438 348.15314Q312.71875 348.71564 313.40625 348.71564Q314.10938 348.71564 314.60938 348.1219Q315.10938 347.52814 315.10938 346.27814Q315.10938 345.09064 314.625 344.5125Q314.14062 343.91876 313.45312 343.91876Q312.78125 343.91876 312.26562 344.54376Q311.75 345.16876 311.75 346.3719ZM317.79688 342.075L317.79688 340.85626L318.85938 340.85626L318.85938 342.075L317.79688 342.075ZM317.79688 349.45L317.79688 343.23126L318.85938 343.23126L318.85938 349.45L317.79688 349.45Z" fill-rule="nonzero"/><path fill="#000000" d="M379.28464 349.45L379.28464 343.23126L380.23776 343.23126L380.23776 344.16876Q380.59714 343.5125 380.894 343.3094Q381.2065 343.09064 381.5815 343.09064Q382.11276 343.09064 382.65964 343.41876L382.30026 344.40314Q381.90964 344.16876 381.53464 344.16876Q381.17526 344.16876 380.894 344.3875Q380.6284 344.59064 380.519 344.96564Q380.3315 345.52814 380.3315 346.1844L380.3315 349.45L379.28464 349.45ZM383.30026 349.45L383.30026 343.23126L384.23776 343.23126L384.23776 344.10626Q384.92526 343.09064 386.22214 343.09064Q386.78464 343.09064 387.2534 343.29376Q387.73776 343.4969 387.97214 343.825Q388.2065 344.15314 388.30026 344.59064Q388.34714 344.8875 388.34714 345.6219L388.34714 349.45L387.30026 349.45L387.30026 345.66876Q387.30026 345.0125 387.17526 344.7Q387.05026 344.3875 386.73776 344.2Q386.42526 343.9969 386.0034 343.9969Q385.3315 343.9969 384.8315 344.4344Q384.34714 344.85626 384.34714 346.04376L384.34714 349.45L383.30026 349.45ZM390.09714 349.96564L391.1284 350.1219Q391.1909 350.59064 391.48776 350.8094Q391.8784 351.10626 392.55026 351.10626Q393.28464 351.10626 393.67526 350.8094Q394.0815 350.5125 394.22214 349.9969Q394.3159 349.66876 394.30026 348.6375Q393.61276 349.45 392.5815 349.45Q391.30026 349.45 390.59714 348.52814Q389.894 347.59064 389.894 346.3094Q389.894 345.41876 390.2065 344.66876Q390.53464 343.90314 391.144 343.4969Q391.7534 343.09064 392.5815 343.09064Q393.6909 343.09064 394.40964 343.98126L394.40964 343.23126L395.3784 343.23126L395.3784 348.60626Q395.3784 350.0594 395.0815 350.66876Q394.78464 351.27814 394.144 351.6219Q393.5034 351.98126 392.5659 351.98126Q391.4565 351.98126 390.769 351.48126Q390.0815 350.98126 390.09714 349.96564ZM390.97214 346.23126Q390.97214 347.45 391.4565 348.0125Q391.9409 348.575 392.67526 348.575Q393.40964 348.575 393.894 348.0125Q394.394 347.45 394.394 346.2625Q394.394 345.1219 393.8784 344.54376Q393.3784 343.96564 392.65964 343.96564Q391.9565 343.96564 391.4565 344.54376Q390.97214 345.10626 390.97214 346.23126Z" fill-rule="nonzero"/><path fill="#000000" d="M449.8818 347.59064L450.91306 347.4344Q451.0068 348.0594 451.39743 348.3875Q451.80368 348.71564 452.53806 348.71564Q453.2568 348.71564 453.60056 348.4344Q453.95993 348.1375 453.95993 347.73126Q453.95993 347.3719 453.64743 347.16876Q453.42868 347.02814 452.5693 346.8094Q451.41306 346.5125 450.95993 346.3094Q450.52243 346.09064 450.28806 345.71564Q450.05368 345.34064 450.05368 344.8719Q450.05368 344.46564 450.24118 344.10626Q450.42868 343.7469 450.7568 343.5125Q451.0068 343.34064 451.42868 343.21564Q451.85056 343.09064 452.35056 343.09064Q453.0693 343.09064 453.61618 343.3094Q454.17868 343.5125 454.4443 343.8719Q454.70993 344.23126 454.80368 344.825L453.77243 344.96564Q453.70993 344.4969 453.36618 344.23126Q453.03806 343.95 452.41306 343.95Q451.6943 343.95 451.3818 344.2Q451.0693 344.4344 451.0693 344.7625Q451.0693 344.96564 451.1943 345.1219Q451.33493 345.29376 451.60056 345.40314Q451.7568 345.46564 452.53806 345.66876Q453.66306 345.98126 454.10056 346.16876Q454.53806 346.35626 454.78806 346.71564Q455.03806 347.075 455.03806 347.6219Q455.03806 348.15314 454.72556 348.6219Q454.42868 349.075 453.85056 349.34064Q453.27243 349.59064 452.53806 349.59064Q451.3193 349.59064 450.67868 349.09064Q450.05368 348.575 449.8818 347.59064ZM456.91306 346.34064Q456.91306 344.60626 457.86618 343.77814Q458.66306 343.09064 459.8193 343.09064Q461.10056 343.09064 461.91306 343.9344Q462.74118 344.7625 462.74118 346.2469Q462.74118 347.45 462.3818 348.1375Q462.02243 348.825 461.3193 349.21564Q460.6318 349.59064 459.8193 349.59064Q458.52243 349.59064 457.70993 348.7625Q456.91306 347.91876 456.91306 346.34064ZM457.99118 346.34064Q457.99118 347.52814 458.5068 348.1219Q459.03806 348.71564 459.8193 348.71564Q460.61618 348.71564 461.1318 348.1219Q461.64743 347.52814 461.64743 346.3094Q461.64743 345.15314 461.11618 344.5594Q460.60056 343.96564 459.8193 343.96564Q459.03806 343.96564 458.5068 344.5594Q457.99118 345.1375 457.99118 346.34064ZM464.28806 349.45L464.28806 343.23126L465.24118 343.23126L465.24118 344.16876Q465.60056 343.5125 465.89743 343.3094Q466.20993 343.09064 466.58493 343.09064Q467.11618 343.09064 467.66306 343.41876L467.30368 344.40314Q466.91306 344.16876 466.53806 344.16876Q466.17868 344.16876 465.89743 344.3875Q465.6318 344.59064 465.52243 344.96564Q465.33493 345.52814 465.33493 346.1844L465.33493 349.45L464.28806 349.45ZM470.60056 348.5125L470.7568 349.4344Q470.30368 349.52814 469.95993 349.52814Q469.3818 349.52814 469.0693 349.35626Q468.7568 349.16876 468.61618 348.8719Q468.49118 348.575 468.49118 347.6219L468.49118 344.04376L467.72556 344.04376L467.72556 343.23126L468.49118 343.23126L468.49118 341.6844L469.53806 341.0594L469.53806 343.23126L470.60056 343.23126L470.60056 344.04376L469.53806 344.04376L469.53806 347.6844Q469.53806 348.1375 469.58493 348.2625Q469.64743 348.3875 469.77243 348.46564Q469.89743 348.54376 470.1318 348.54376Q470.3193 348.54376 470.60056 348.5125Z" fill-rule="nonzero"/><path fill="#000000" d="M526.9477 349.45L525.04144 343.23126L526.1352 343.23126L527.11957 346.825L527.49457 348.15314Q527.5258 348.0594 527.8227 346.8719L528.80707 343.23126L529.8852 343.23126L530.8227 346.84064L531.1352 348.02814L531.49457 346.825L532.55707 343.23126L533.5883 343.23126L531.6352 349.45L530.54144 349.45L529.55707 345.71564L529.30707 344.66876L528.05707 349.45L526.9477 349.45ZM538.86957 347.16876L539.9008 347.3094Q539.72894 348.3719 539.0258 348.98126Q538.3227 349.59064 537.30707 349.59064Q536.0258 349.59064 535.24457 348.7625Q534.47894 347.91876 534.47894 346.35626Q534.47894 345.35626 534.80707 344.60626Q535.1508 343.84064 535.8227 343.46564Q536.5102 343.09064 537.3227 343.09064Q538.3227 343.09064 538.9633 343.60626Q539.61957 344.10626 539.80707 345.0594L538.7758 345.21564Q538.6352 344.59064 538.2602 344.27814Q537.8852 343.95 537.35394 343.95Q536.55707 343.95 536.05707 344.52814Q535.55707 345.09064 535.55707 346.325Q535.55707 347.59064 536.04144 348.15314Q536.5258 348.71564 537.29144 348.71564Q537.91644 348.71564 538.3227 348.34064Q538.74457 347.96564 538.86957 347.16876Z" fill-rule="nonzero"/><path fill="#4285f4" d="M121.5 20.55C121.5 19.997715 121.947716 19.55 122.5 19.55L132.5 19.55C133.05229 19.55 133.5 19.997715 133.5 20.55L133.5 30.55C133.5 31.102285 133.05229 31.55 132.5 31.55L122.5 31.55C121.947716 31.55 121.5 31.102285 121.5 30.55Z" fill-rule="nonzero"/><path fill="#1a1a1a" d="M142.625 29.55L142.625 20.95625L143.75 20.95625L143.75 29.55L142.625 29.55ZM145.42188 29.55L145.42188 20.95625L148.67188 20.95625Q149.51562 20.95625 149.96875 21.034374Q150.60938 21.14375 151.03125 21.440624Q151.46875 21.7375 151.71875 22.26875Q151.98438 22.8 151.98438 23.440624Q151.98438 24.534374 151.28125 25.3Q150.59375 26.05 148.76562 26.05L146.5625 26.05L146.5625 29.55L145.42188 29.55ZM146.5625 25.05L148.78125 25.05Q149.89062 25.05 150.34375 24.64375Q150.8125 24.221874 150.8125 23.471874Q150.8125 22.940624 150.53125 22.565624Q150.26562 22.175 149.82812 22.05Q149.53125 21.971874 148.76562 21.971874L146.5625 21.971874L146.5625 25.05ZM159.5625 26.534374L160.6875 26.83125Q160.32812 28.221874 159.40625 28.95625Q158.48438 29.690624 157.14062 29.690624Q155.75 29.690624 154.875 29.128124Q154.0 28.565624 153.54688 27.503124Q153.09375 26.425 153.09375 25.190624Q153.09375 23.846874 153.60938 22.846874Q154.125 21.846874 155.0625 21.33125Q156.01562 20.815624 157.15625 20.815624Q158.4375 20.815624 159.3125 21.471874Q160.20312 22.128124 160.54688 23.315624L159.42188 23.58125Q159.125 22.64375 158.54688 22.221874Q157.98438 21.784374 157.125 21.784374Q156.14062 21.784374 155.46875 22.26875Q154.8125 22.7375 154.53125 23.534374Q154.26562 24.33125 154.26562 25.190624Q154.26562 26.284374 154.57812 27.096874Q154.90625 27.909374 155.57812 28.315624Q156.25 28.721874 157.04688 28.721874Q158.0 28.721874 158.65625 28.175Q159.32812 27.628124 159.5625 26.534374ZM166.4375 29.55L164.53125 23.33125L165.625 23.33125L166.60938 26.925L166.98438 28.253124Q167.01562 28.159374 167.3125 26.971874L168.29688 23.33125L169.375 23.33125L170.3125 26.940624L170.625 28.128124L170.98438 26.925L172.04688 23.33125L173.07812 23.33125L171.125 29.55L170.03125 29.55L169.04688 25.815624L168.79688 24.76875L167.54688 29.55L166.4375 29.55ZM174.29688 22.175L174.29688 20.95625L175.35938 20.95625L175.35938 22.175L174.29688 22.175ZM174.29688 29.55L174.29688 23.33125L175.35938 23.33125L175.35938 29.55L174.29688 29.55ZM179.59375 28.6125L179.75 29.534374Q179.29688 29.628124 178.95312 29.628124Q178.375 29.628124 178.0625 29.45625Q177.75 29.26875 177.60938 28.971874Q177.48438 28.675 177.48438 27.721874L177.48438 24.14375L176.71875 24.14375L176.71875 23.33125L177.48438 23.33125L177.48438 21.784374L178.53125 21.159374L178.53125 23.33125L179.59375 23.33125L179.59375 24.14375L178.53125 24.14375L178.53125 27.784374Q178.53125 28.2375 178.57812 28.3625Q178.64062 28.4875 178.76562 28.565624Q178.89062 28.64375 179.125 28.64375Q179.3125 28.64375 179.59375 28.6125ZM180.29688 29.55L180.29688 20.95625L181.34375 20.95625L181.34375 24.034374Q182.07812 23.190624 183.20312 23.190624Q183.90625 23.190624 184.40625 23.471874Q184.92188 23.7375 185.14062 24.221874Q185.35938 24.690624 185.35938 25.6125L185.35938 29.55L184.3125 29.55L184.3125 25.6125Q184.3125 24.815624 183.96875 24.45625Q183.625 24.096874 183.0 24.096874Q182.53125 24.096874 182.10938 24.346874Q181.70312 24.58125 181.51562 25.003124Q181.34375 25.409374 181.34375 26.14375L181.34375 29.55L180.29688 29.55ZM186.90625 26.440624Q186.90625 24.70625 187.85938 23.878124Q188.65625 23.190624 189.8125 23.190624Q191.09375 23.190624 191.90625 24.034374Q192.73438 24.8625 192.73438 26.346874Q192.73438 27.55 192.375 28.2375Q192.01562 28.925 191.3125 29.315624Q190.625 29.690624 189.8125 29.690624Q188.51562 29.690624 187.70312 28.8625Q186.90625 28.01875 186.90625 26.440624ZM187.98438 26.440624Q187.98438 27.628124 188.5 28.221874Q189.03125 28.815624 189.8125 28.815624Q190.60938 28.815624 191.125 28.221874Q191.64062 27.628124 191.64062 26.409374Q191.64062 25.253124 191.10938 24.659374Q190.59375 24.065624 189.8125 24.065624Q189.03125 24.065624 188.5 24.659374Q187.98438 25.2375 187.98438 26.440624ZM198.375 29.55L198.375 28.628124Q197.64062 29.690624 196.39062 29.690624Q195.84375 29.690624 195.35938 29.4875Q194.89062 29.26875 194.65625 28.95625Q194.42188 28.628124 194.32812 28.159374Q194.26562 27.8625 194.26562 27.175L194.26562 23.33125L195.32812 23.33125L195.32812 26.784374Q195.32812 27.596874 195.39062 27.89375Q195.48438 28.3 195.79688 28.55Q196.125 28.784374 196.60938 28.784374Q197.07812 28.784374 197.48438 28.55Q197.90625 28.3 198.07812 27.878124Q198.26562 27.45625 198.26562 26.659374L198.26562 23.33125L199.3125 23.33125L199.3125 29.55L198.375 29.55ZM203.59375 28.6125L203.75 29.534374Q203.29688 29.628124 202.95312 29.628124Q202.375 29.628124 202.0625 29.45625Q201.75 29.26875 201.60938 28.971874Q201.48438 28.675 201.48438 27.721874L201.48438 24.14375L200.71875 24.14375L200.71875 23.33125L201.48438 23.33125L201.48438 21.784374L202.53125 21.159374L202.53125 23.33125L203.59375 23.33125L203.59375 24.14375L202.53125 24.14375L202.53125 27.784374Q202.53125 28.2375 202.57812 28.3625Q202.64062 28.4875 202.76562 28.565624Q202.89062 28.64375 203.125 28.64375Q203.3125 28.64375 203.59375 28.6125ZM207.29688 29.55L207.29688 23.33125L208.23438 23.33125L208.23438 24.20625Q208.53125 23.7375 209.01562 23.471874Q209.5 23.190624 210.125 23.190624Q210.8125 23.190624 211.25 23.471874Q211.70312 23.753124 211.875 24.26875Q212.625 23.190624 213.79688 23.190624Q214.73438 23.190624 215.21875 23.70625Q215.71875 24.20625 215.71875 25.284374L215.71875 29.55L214.67188 29.55L214.67188 25.628124Q214.67188 25.003124 214.5625 24.721874Q214.46875 24.440624 214.20312 24.26875Q213.9375 24.096874 213.5625 24.096874Q212.90625 24.096874 212.46875 24.534374Q212.04688 24.971874 212.04688 25.940624L212.04688 29.55L210.98438 29.55L210.98438 25.503124Q210.98438 24.8 210.71875 24.45625Q210.46875 24.096874 209.89062 24.096874Q209.4375 24.096874 209.0625 24.33125Q208.6875 24.565624 208.51562 25.01875Q208.34375 25.471874 208.34375 26.315624L208.34375 29.55L207.29688 29.55ZM218.29688 22.175L218.29688 20.95625L219.35938 20.95625L219.35938 22.175L218.29688 22.175ZM218.29688 29.55L218.29688 23.33125L219.35938 23.33125L219.35938 29.55L218.29688 29.55ZM220.875 27.690624L221.90625 27.534374Q222.0 28.159374 222.39062 28.4875Q222.79688 28.815624 223.53125 28.815624Q224.25 28.815624 224.59375 28.534374Q224.95312 28.2375 224.95312 27.83125Q224.95312 27.471874 224.64062 27.26875Q224.42188 27.128124 223.5625 26.909374Q222.40625 26.6125 221.95312 26.409374Q221.51562 26.190624 221.28125 25.815624Q221.04688 25.440624 221.04688 24.971874Q221.04688 24.565624 221.23438 24.20625Q221.42188 23.846874 221.75 23.6125Q222.0 23.440624 222.42188 23.315624Q222.84375 23.190624 223.34375 23.190624Q224.0625 23.190624 224.60938 23.409374Q225.17188 23.6125 225.4375 23.971874Q225.70312 24.33125 225.79688 24.925L224.76562 25.065624Q224.70312 24.596874 224.35938 24.33125Q224.03125 24.05 223.40625 24.05Q222.6875 24.05 222.375 24.3Q222.0625 24.534374 222.0625 24.8625Q222.0625 25.065624 222.1875 25.221874Q222.32812 25.39375 222.59375 25.503124Q222.75 25.565624 223.53125 25.76875Q224.65625 26.08125 225.09375 26.26875Q225.53125 26.45625 225.78125 26.815624Q226.03125 27.175 226.03125 27.721874Q226.03125 28.253124 225.71875 28.721874Q225.42188 29.175 224.84375 29.440624Q224.26562 29.690624 223.53125 29.690624Q222.3125 29.690624 221.67188 29.190624Q221.04688 28.675 220.875 27.690624ZM228.29688 31.940624L228.29688 23.33125L229.25 23.33125L229.25 24.128124Q229.59375 23.659374 230.01562 23.425Q230.45312 23.190624 231.0625 23.190624Q231.85938 23.190624 232.46875 23.596874Q233.07812 24.003124 233.375 24.753124Q233.6875 25.503124 233.6875 26.39375Q233.6875 27.346874 233.34375 28.1125Q233.01562 28.878124 232.35938 29.284374Q231.70312 29.690624 230.98438 29.690624Q230.45312 29.690624 230.03125 29.471874Q229.60938 29.2375 229.34375 28.909374L229.34375 31.940624L228.29688 31.940624ZM229.25 26.471874Q229.25 27.675 229.73438 28.253124Q230.21875 28.815624 230.90625 28.815624Q231.60938 28.815624 232.10938 28.221874Q232.60938 27.628124 232.60938 26.378124Q232.60938 25.190624 232.125 24.6125Q231.64062 24.01875 230.95312 24.01875Q230.28125 24.01875 229.76562 24.64375Q229.25 25.26875 229.25 26.471874ZM235.28125 29.55L235.28125 23.33125L236.23438 23.33125L236.23438 24.26875Q236.59375 23.6125 236.89062 23.409374Q237.20312 23.190624 237.57812 23.190624Q238.10938 23.190624 238.65625 23.51875L238.29688 24.503124Q237.90625 24.26875 237.53125 24.26875Q237.17188 24.26875 236.89062 24.4875Q236.625 24.690624 236.51562 25.065624Q236.32812 25.628124 236.32812 26.284374L236.32812 29.55L235.28125 29.55ZM243.54688 27.55L244.64062 27.675Q244.39062 28.628124 243.6875 29.159374Q242.98438 29.690624 241.90625 29.690624Q240.54688 29.690624 239.73438 28.846874Q238.9375 28.003124 238.9375 26.4875Q238.9375 24.925 239.75 24.065624Q240.5625 23.190624 241.84375 23.190624Q243.09375 23.190624 243.875 24.034374Q244.67188 24.878124 244.67188 26.425Q244.67188 26.51875 244.67188 26.70625L240.03125 26.70625Q240.09375 27.7375 240.60938 28.284374Q241.125 28.815624 241.90625 28.815624Q242.48438 28.815624 242.89062 28.51875Q243.3125 28.20625 243.54688 27.55ZM240.09375 25.846874L243.5625 25.846874Q243.5 25.05 243.17188 24.659374Q242.65625 24.05 241.85938 24.05Q241.125 24.05 240.625 24.534374Q240.14062 25.01875 240.09375 25.846874ZM250.32812 29.55L250.32812 28.76875Q249.73438 29.690624 248.59375 29.690624Q247.84375 29.690624 247.21875 29.284374Q246.59375 28.8625 246.25 28.128124Q245.90625 27.39375 245.90625 26.440624Q245.90625 25.51875 246.21875 24.753124Q246.53125 23.9875 247.15625 23.596874Q247.78125 23.190624 248.54688 23.190624Q249.10938 23.190624 249.54688 23.425Q249.98438 23.659374 250.26562 24.034374L250.26562 20.95625L251.3125 20.95625L251.3125 29.55L250.32812 29.55ZM247.0 26.440624Q247.0 27.64375 247.5 28.2375Q248.0 28.815624 248.6875 28.815624Q249.375 28.815624 249.85938 28.253124Q250.34375 27.690624 250.34375 26.534374Q250.34375 25.253124 249.84375 24.659374Q249.35938 24.065624 248.64062 24.065624Q247.9375 24.065624 247.46875 24.64375Q247.0 25.20625 247.0 26.440624ZM253.29688 22.175L253.29688 20.95625L254.35938 20.95625L254.35938 22.175L253.29688 22.175ZM253.29688 29.55L253.29688 23.33125L254.35938 23.33125L254.35938 29.55L253.29688 29.55ZM260.35938 27.26875L261.39062 27.409374Q261.21875 28.471874 260.51562 29.08125Q259.8125 29.690624 258.79688 29.690624Q257.51562 29.690624 256.73438 28.8625Q255.96875 28.01875 255.96875 26.45625Q255.96875 25.45625 256.29688 24.70625Q256.64062 23.940624 257.3125 23.565624Q258.0 23.190624 258.8125 23.190624Q259.8125 23.190624 260.45312 23.70625Q261.10938 24.20625 261.29688 25.159374L260.26562 25.315624Q260.125 24.690624 259.75 24.378124Q259.375 24.05 258.84375 24.05Q258.04688 24.05 257.54688 24.628124Q257.04688 25.190624 257.04688 26.425Q257.04688 27.690624 257.53125 28.253124Q258.01562 28.815624 258.78125 28.815624Q259.40625 28.815624 259.8125 28.440624Q260.23438 28.065624 260.35938 27.26875ZM264.59375 28.6125L264.75 29.534374Q264.29688 29.628124 263.95312 29.628124Q263.375 29.628124 263.0625 29.45625Q262.75 29.26875 262.60938 28.971874Q262.48438 28.675 262.48438 27.721874L262.48438 24.14375L261.71875 24.14375L261.71875 23.33125L262.48438 23.33125L262.48438 21.784374L263.53125 21.159374L263.53125 23.33125L264.59375 23.33125L264.59375 24.14375L263.53125 24.14375L263.53125 27.784374Q263.53125 28.2375 263.57812 28.3625Q263.64062 28.4875 263.76562 28.565624Q263.89062 28.64375 264.125 28.64375Q264.3125 28.64375 264.59375 28.6125ZM264.875 27.690624L265.90625 27.534374Q266.0 28.159374 266.39062 28.4875Q266.79688 28.815624 267.53125 28.815624Q268.25 28.815624 268.59375 28.534374Q268.95312 28.2375 268.95312 27.83125Q268.95312 27.471874 268.64062 27.26875Q268.42188 27.128124 267.5625 26.909374Q266.40625 26.6125 265.95312 26.409374Q265.51562 26.190624 265.28125 25.815624Q265.04688 25.440624 265.04688 24.971874Q265.04688 24.565624 265.23438 24.20625Q265.42188 23.846874 265.75 23.6125Q266.0 23.440624 266.42188 23.315624Q266.84375 23.190624 267.34375 23.190624Q268.0625 23.190624 268.60938 23.409374Q269.17188 23.6125 269.4375 23.971874Q269.70312 24.33125 269.79688 24.925L268.76562 25.065624Q268.70312 24.596874 268.35938 24.33125Q268.03125 24.05 267.40625 24.05Q266.6875 24.05 266.375 24.3Q266.0625 24.534374 266.0625 24.8625Q266.0625 25.065624 266.1875 25.221874Q266.32812 25.39375 266.59375 25.503124Q266.75 25.565624 267.53125 25.76875Q268.65625 26.08125 269.09375 26.26875Q269.53125 26.45625 269.78125 26.815624Q270.03125 27.175 270.03125 27.721874Q270.03125 28.253124 269.71875 28.721874Q269.42188 29.175 268.84375 29.440624Q268.26562 29.690624 267.53125 29.690624Q266.3125 29.690624 265.67188 29.190624Q265.04688 28.675 264.875 27.690624Z" fill-rule="nonzero"/><path fill="#ea4335" d="M287.5 20.55C287.5 19.997715 287.94772 19.55 288.5 19.55L298.5 19.55C299.05228 19.55 299.5 19.997715 299.5 20.55L299.5 30.55C299.5 31.102285 299.05228 31.55 298.5 31.55L288.5 31.55C287.94772 31.55 287.5 31.102285 287.5 30.55Z" fill-rule="nonzero"/><path fill="#1a1a1a" d="M308.375 29.55L308.375 20.95625L311.60938 20.95625Q312.59375 20.95625 313.1875 21.221874Q313.78125 21.4875 314.10938 22.034374Q314.45312 22.565624 314.45312 23.159374Q314.45312 23.70625 314.15625 24.190624Q313.85938 24.675 313.25 24.971874Q314.03125 25.20625 314.4375 25.76875Q314.85938 26.315624 314.85938 27.065624Q314.85938 27.659374 314.60938 28.190624Q314.35938 28.70625 313.98438 28.9875Q313.60938 29.26875 313.03125 29.409374Q312.46875 29.55 311.65625 29.55L308.375 29.55ZM309.51562 24.565624L311.375 24.565624Q312.125 24.565624 312.45312 24.471874Q312.89062 24.346874 313.10938 24.05Q313.32812 23.7375 313.32812 23.284374Q313.32812 22.8625 313.125 22.534374Q312.92188 22.20625 312.53125 22.096874Q312.15625 21.971874 311.23438 21.971874L309.51562 21.971874L309.51562 24.565624ZM309.51562 28.534374L311.65625 28.534374Q312.20312 28.534374 312.42188 28.4875Q312.82812 28.425 313.07812 28.26875Q313.34375 28.096874 313.51562 27.784374Q313.6875 27.471874 313.6875 27.065624Q313.6875 26.58125 313.4375 26.221874Q313.20312 25.8625 312.76562 25.721874Q312.32812 25.58125 311.5 25.58125L309.51562 25.58125L309.51562 28.534374ZM315.48438 29.55L318.78125 20.95625L320.0 20.95625L323.51562 29.55L322.23438 29.55L321.21875 26.940624L317.64062 26.940624L316.6875 29.55L315.48438 29.55ZM317.96875 26.01875L320.875 26.01875L319.98438 23.64375Q319.5625 22.565624 319.375 21.8625Q319.20312 22.690624 318.90625 23.503124L317.96875 26.01875ZM325.60938 29.55L325.60938 21.971874L322.78125 21.971874L322.78125 20.95625L329.59375 20.95625L329.59375 21.971874L326.75 21.971874L326.75 29.55L325.60938 29.55ZM329.48438 29.55L332.78125 20.95625L334.0 20.95625L337.51562 29.55L336.23438 29.55L335.21875 26.940624L331.64062 26.940624L330.6875 29.55L329.48438 29.55ZM331.96875 26.01875L334.875 26.01875L333.98438 23.64375Q333.5625 22.565624 333.375 21.8625Q333.20312 22.690624 332.90625 23.503124L331.96875 26.01875ZM341.45312 26.175L341.45312 25.175L345.07812 25.159374L345.07812 28.346874Q344.25 29.01875 343.35938 29.3625Q342.46875 29.690624 341.53125 29.690624Q340.26562 29.690624 339.21875 29.159374Q338.1875 28.6125 337.65625 27.596874Q337.14062 26.565624 337.14062 25.3Q337.14062 24.034374 337.65625 22.95625Q338.1875 21.8625 339.17188 21.346874Q340.15625 20.815624 341.4375 20.815624Q342.375 20.815624 343.125 21.1125Q343.875 21.409374 344.29688 21.95625Q344.73438 22.4875 344.95312 23.3625L343.9375 23.64375Q343.73438 22.9875 343.4375 22.6125Q343.15625 22.2375 342.625 22.01875Q342.09375 21.784374 341.45312 21.784374Q340.67188 21.784374 340.09375 22.01875Q339.53125 22.253124 339.17188 22.64375Q338.82812 23.034374 338.64062 23.503124Q338.3125 24.3 338.3125 25.221874Q338.3125 26.378124 338.70312 27.159374Q339.10938 27.925 339.85938 28.3Q340.60938 28.675 341.46875 28.675Q342.20312 28.675 342.90625 28.39375Q343.60938 28.096874 343.96875 27.784374L343.96875 26.175L341.45312 26.175ZM346.45312 29.55L346.45312 20.95625L352.65625 20.95625L352.65625 21.971874L347.59375 21.971874L347.59375 24.596874L352.34375 24.596874L352.34375 25.6125L347.59375 25.6125L347.59375 28.534374L352.85938 28.534374L352.85938 29.55L346.45312 29.55ZM357.625 29.55L357.625 20.95625L358.75 20.95625L358.75 29.55L357.625 29.55ZM360.42188 29.55L360.42188 20.95625L363.67188 20.95625Q364.51562 20.95625 364.96875 21.034374Q365.60938 21.14375 366.03125 21.440624Q366.46875 21.7375 366.71875 22.26875Q366.98438 22.8 366.98438 23.440624Q366.98438 24.534374 366.28125 25.3Q365.59375 26.05 363.76562 26.05L361.5625 26.05L361.5625 29.55L360.42188 29.55ZM361.5625 25.05L363.78125 25.05Q364.89062 25.05 365.34375 24.64375Q365.8125 24.221874 365.8125 23.471874Q365.8125 22.940624 365.53125 22.565624Q365.26562 22.175 364.82812 22.05Q364.53125 21.971874 363.76562 21.971874L361.5625 21.971874L361.5625 25.05ZM374.5625 26.534374L375.6875 26.83125Q375.32812 28.221874 374.40625 28.95625Q373.48438 29.690624 372.14062 29.690624Q370.75 29.690624 369.875 29.128124Q369.0 28.565624 368.54688 27.503124Q368.09375 26.425 368.09375 25.190624Q368.09375 23.846874 368.60938 22.846874Q369.125 21.846874 370.0625 21.33125Q371.01562 20.815624 372.15625 20.815624Q373.4375 20.815624 374.3125 21.471874Q375.20312 22.128124 375.54688 23.315624L374.42188 23.58125Q374.125 22.64375 373.54688 22.221874Q372.98438 21.784374 372.125 21.784374Q371.14062 21.784374 370.46875 22.26875Q369.8125 22.7375 369.53125 23.534374Q369.26562 24.33125 369.26562 25.190624Q369.26562 26.284374 369.57812 27.096874Q369.90625 27.909374 370.57812 28.315624Q371.25 28.721874 372.04688 28.721874Q373.0 28.721874 373.65625 28.175Q374.32812 27.628124 374.5625 26.534374Z" fill-rule="nonzero"/><path fill="#fbbc04" d="M392.5 20.55C392.5 19.997715 392.94772 19.55 393.5 19.55L403.5 19.55C404.05228 19.55 404.5 19.997715 404.5 20.55L404.5 30.55C404.5 31.102285 404.05228 31.55 403.5 31.55L393.5 31.55C392.94772 31.55 392.5 31.102285 392.5 30.55Z" fill-rule="nonzero"/><path fill="#1a1a1a" d="M413.42188 29.55L413.42188 20.95625L414.57812 20.95625L419.09375 27.70625L419.09375 20.95625L420.1875 20.95625L420.1875 29.55L419.01562 29.55L414.5 22.8L414.5 29.55L413.42188 29.55ZM421.90625 26.440624Q421.90625 24.70625 422.85938 23.878124Q423.65625 23.190624 424.8125 23.190624Q426.09375 23.190624 426.90625 24.034374Q427.73438 24.8625 427.73438 26.346874Q427.73438 27.55 427.375 28.2375Q427.01562 28.925 426.3125 29.315624Q425.625 29.690624 424.8125 29.690624Q423.51562 29.690624 422.70312 28.8625Q421.90625 28.01875 421.90625 26.440624ZM422.98438 26.440624Q422.98438 27.628124 423.5 28.221874Q424.03125 28.815624 424.8125 28.815624Q425.60938 28.815624 426.125 28.221874Q426.64062 27.628124 426.64062 26.409374Q426.64062 25.253124 426.10938 24.659374Q425.59375 24.065624 424.8125 24.065624Q424.03125 24.065624 423.5 24.659374Q422.98438 25.2375 422.98438 26.440624ZM431.59375 28.6125L431.75 29.534374Q431.29688 29.628124 430.95312 29.628124Q430.375 29.628124 430.0625 29.45625Q429.75 29.26875 429.60938 28.971874Q429.48438 28.675 429.48438 27.721874L429.48438 24.14375L428.71875 24.14375L428.71875 23.33125L429.48438 23.33125L429.48438 21.784374L430.53125 21.159374L430.53125 23.33125L431.59375 23.33125L431.59375 24.14375L430.53125 24.14375L430.53125 27.784374Q430.53125 28.2375 430.57812 28.3625Q430.64062 28.4875 430.76562 28.565624Q430.89062 28.64375 431.125 28.64375Q431.3125 28.64375 431.59375 28.6125ZM432.29688 29.55L432.29688 20.95625L433.34375 20.95625L433.34375 24.034374Q434.07812 23.190624 435.20312 23.190624Q435.90625 23.190624 436.40625 23.471874Q436.92188 23.7375 437.14062 24.221874Q437.35938 24.690624 437.35938 25.6125L437.35938 29.55L436.3125 29.55L436.3125 25.6125Q436.3125 24.815624 435.96875 24.45625Q435.625 24.096874 435.0 24.096874Q434.53125 24.096874 434.10938 24.346874Q433.70312 24.58125 433.51562 25.003124Q433.34375 25.409374 433.34375 26.14375L433.34375 29.55L432.29688 29.55ZM439.29688 22.175L439.29688 20.95625L440.35938 20.95625L440.35938 22.175L439.29688 22.175ZM439.29688 29.55L439.29688 23.33125L440.35938 23.33125L440.35938 29.55L439.29688 29.55ZM442.29688 29.55L442.29688 23.33125L443.23438 23.33125L443.23438 24.20625Q443.92188 23.190624 445.21875 23.190624Q445.78125 23.190624 446.25 23.39375Q446.73438 23.596874 446.96875 23.925Q447.20312 24.253124 447.29688 24.690624Q447.34375 24.9875 447.34375 25.721874L447.34375 29.55L446.29688 29.55L446.29688 25.76875Q446.29688 25.1125 446.17188 24.8Q446.04688 24.4875 445.73438 24.3Q445.42188 24.096874 445.0 24.096874Q444.32812 24.096874 443.82812 24.534374Q443.34375 24.95625 443.34375 26.14375L443.34375 29.55L442.29688 29.55ZM449.09375 30.065624L450.125 30.221874Q450.1875 30.690624 450.48438 30.909374Q450.875 31.20625 451.54688 31.20625Q452.28125 31.20625 452.67188 30.909374Q453.07812 30.6125 453.21875 30.096874Q453.3125 29.76875 453.29688 28.7375Q452.60938 29.55 451.57812 29.55Q450.29688 29.55 449.59375 28.628124Q448.89062 27.690624 448.89062 26.409374Q448.89062 25.51875 449.20312 24.76875Q449.53125 24.003124 450.14062 23.596874Q450.75 23.190624 451.57812 23.190624Q452.6875 23.190624 453.40625 24.08125L453.40625 23.33125L454.375 23.33125L454.375 28.70625Q454.375 30.159374 454.07812 30.76875Q453.78125 31.378124 453.14062 31.721874Q452.5 32.08125 451.5625 32.08125Q450.45312 32.08125 449.76562 31.58125Q449.07812 31.08125 449.09375 30.065624ZM449.96875 26.33125Q449.96875 27.55 450.45312 28.1125Q450.9375 28.675 451.67188 28.675Q452.40625 28.675 452.89062 28.1125Q453.39062 27.55 453.39062 26.3625Q453.39062 25.221874 452.875 24.64375Q452.375 24.065624 451.65625 24.065624Q450.95312 24.065624 450.45312 24.64375Q449.96875 25.20625 449.96875 26.33125ZM459.625 29.55L459.625 20.95625L460.75 20.95625L460.75 29.55L459.625 29.55ZM462.42188 29.55L462.42188 20.95625L465.67188 20.95625Q466.51562 20.95625 466.96875 21.034374Q467.60938 21.14375 468.03125 21.440624Q468.46875 21.7375 468.71875 22.26875Q468.98438 22.8 468.98438 23.440624Q468.98438 24.534374 468.28125 25.3Q467.59375 26.05 465.76562 26.05L463.5625 26.05L463.5625 29.55L462.42188 29.55ZM463.5625 25.05L465.78125 25.05Q466.89062 25.05 467.34375 24.64375Q467.8125 24.221874 467.8125 23.471874Q467.8125 22.940624 467.53125 22.565624Q467.26562 22.175 466.82812 22.05Q466.53125 21.971874 465.76562 21.971874L463.5625 21.971874L463.5625 25.05ZM476.5625 26.534374L477.6875 26.83125Q477.32812 28.221874 476.40625 28.95625Q475.48438 29.690624 474.14062 29.690624Q472.75 29.690624 471.875 29.128124Q471.0 28.565624 470.54688 27.503124Q470.09375 26.425 470.09375 25.190624Q470.09375 23.846874 470.60938 22.846874Q471.125 21.846874 472.0625 21.33125Q473.01562 20.815624 474.15625 20.815624Q475.4375 20.815624 476.3125 21.471874Q477.20312 22.128124 477.54688 23.315624L476.42188 23.58125Q476.125 22.64375 475.54688 22.221874Q474.98438 21.784374 474.125 21.784374Q473.14062 21.784374 472.46875 22.26875Q471.8125 22.7375 471.53125 23.534374Q471.26562 24.33125 471.26562 25.190624Q471.26562 26.284374 471.57812 27.096874Q471.90625 27.909374 472.57812 28.315624Q473.25 28.721874 474.04688 28.721874Q475.0 28.721874 475.65625 28.175Q476.32812 27.628124 476.5625 26.534374Z" fill-rule="nonzero"/></svg>